<svg width="421" height="46" viewBox="0 0 421 46" fill="none" xmlns="http://www.w3.org/2000/svg">
<path d="M19.4999 17C19.2015 17 18.9154 16.8815 18.7044 16.6705C18.4934 16.4595 18.3749 16.1734 18.3749 15.875C18.3749 15.2783 18.1378 14.706 17.7159 14.284C17.2939 13.8621 16.7216 13.625 16.1249 13.625C15.8265 13.625 15.5404 13.5065 15.3294 13.2955C15.1184 13.0845 14.9999 12.7984 14.9999 12.5C14.9999 12.2016 15.1184 11.9155 15.3294 11.7045C15.5404 11.4935 15.8265 11.375 16.1249 11.375C16.7216 11.375 17.2939 11.1379 17.7159 10.716C18.1378 10.294 18.3749 9.72174 18.3749 9.125C18.3749 8.82663 18.4934 8.54048 18.7044 8.3295C18.9154 8.11853 19.2015 8 19.4999 8C19.7982 8 20.0844 8.11853 20.2954 8.3295C20.5064 8.54048 20.6249 8.82663 20.6249 9.125C20.6249 9.72174 20.8619 10.294 21.2839 10.716C21.7058 11.1379 22.2781 11.375 22.8749 11.375C23.1732 11.375 23.4594 11.4935 23.6704 11.7045C23.8814 11.9155 23.9999 12.2016 23.9999 12.5C23.9999 12.7984 23.8814 13.0845 23.6704 13.2955C23.4594 13.5065 23.1732 13.625 22.8749 13.625C22.2781 13.625 21.7058 13.8621 21.2839 14.284C20.8619 14.706 20.6249 15.2783 20.6249 15.875C20.6249 16.1734 20.5064 16.4595 20.2954 16.6705C20.0844 16.8815 19.7982 17 19.4999 17Z" fill="#DF349E"/>
<path d="M9 32C8.60218 32 8.22065 31.842 7.93934 31.5607C7.65804 31.2794 7.5 30.8978 7.5 30.5C7.5 28.9087 6.86786 27.3826 5.74264 26.2574C4.61742 25.1321 3.0913 24.5 1.5 24.5C1.10218 24.5 0.720644 24.342 0.43934 24.0607C0.158035 23.7794 0 23.3978 0 23C0 22.6022 0.158035 22.2206 0.43934 21.9393C0.720644 21.658 1.10218 21.5 1.5 21.5C3.0913 21.5 4.61742 20.8679 5.74264 19.7426C6.86786 18.6174 7.5 17.0913 7.5 15.5C7.5 15.1022 7.65804 14.7206 7.93934 14.4393C8.22065 14.158 8.60218 14 9 14C9.39783 14 9.77936 14.158 10.0607 14.4393C10.342 14.7206 10.5 15.1022 10.5 15.5C10.5 17.0913 11.1321 18.6174 12.2574 19.7426C13.3826 20.8679 14.9087 21.5 16.5 21.5C16.8978 21.5 17.2794 21.658 17.5607 21.9393C17.842 22.2206 18 22.6022 18 23C18 23.3978 17.842 23.7794 17.5607 24.0607C17.2794 24.342 16.8978 24.5 16.5 24.5C14.9087 24.5 13.3826 25.1321 12.2574 26.2574C11.1321 27.3826 10.5 28.9087 10.5 30.5C10.5 30.8978 10.342 31.2794 10.0607 31.5607C9.77936 31.842 9.39783 32 9 32Z" fill="#DF349E"/>
<path d="M64.424 11.536V34H58.952V20.528L53.928 34H49.512L44.456 20.496V34H38.984V11.536H45.448L51.752 27.088L57.992 11.536H64.424ZM71.111 14.288C70.151 14.288 69.3617 14.0107 68.743 13.456C68.1457 12.88 67.847 12.176 67.847 11.344C67.847 10.4907 68.1457 9.78667 68.743 9.232C69.3617 8.656 70.151 8.368 71.111 8.368C72.0497 8.368 72.8177 8.656 73.415 9.232C74.0337 9.78667 74.343 10.4907 74.343 11.344C74.343 12.176 74.0337 12.88 73.415 13.456C72.8177 14.0107 72.0497 14.288 71.111 14.288ZM73.831 16.144V34H68.359V16.144H73.831ZM76.7085 25.04C76.7085 23.2053 77.0498 21.5947 77.7325 20.208C78.4365 18.8213 79.3858 17.7547 80.5805 17.008C81.7752 16.2613 83.1085 15.888 84.5805 15.888C85.8392 15.888 86.9378 16.144 87.8765 16.656C88.8365 17.168 89.5725 17.84 90.0845 18.672V16.144H95.5565V34H90.0845V31.472C89.5512 32.304 88.8045 32.976 87.8445 33.488C86.9058 34 85.8072 34.256 84.5485 34.256C83.0978 34.256 81.7752 33.8827 80.5805 33.136C79.3858 32.368 78.4365 31.2907 77.7325 29.904C77.0498 28.496 76.7085 26.8747 76.7085 25.04ZM90.0845 25.072C90.0845 23.7067 89.7005 22.6293 88.9325 21.84C88.1858 21.0507 87.2685 20.656 86.1805 20.656C85.0925 20.656 84.1645 21.0507 83.3965 21.84C82.6498 22.608 82.2765 23.6747 82.2765 25.04C82.2765 26.4053 82.6498 27.4933 83.3965 28.304C84.1645 29.0933 85.0925 29.488 86.1805 29.488C87.2685 29.488 88.1858 29.0933 88.9325 28.304C89.7005 27.5147 90.0845 26.4373 90.0845 25.072ZM122.299 15.952C124.518 15.952 126.278 16.624 127.579 17.968C128.902 19.312 129.563 21.1787 129.563 23.568V34H124.123V24.304C124.123 23.152 123.814 22.2667 123.195 21.648C122.598 21.008 121.766 20.688 120.699 20.688C119.633 20.688 118.79 21.008 118.171 21.648C117.574 22.2667 117.275 23.152 117.275 24.304V34H111.835V24.304C111.835 23.152 111.526 22.2667 110.907 21.648C110.31 21.008 109.478 20.688 108.411 20.688C107.345 20.688 106.502 21.008 105.883 21.648C105.286 22.2667 104.987 23.152 104.987 24.304V34H99.5153V16.144H104.987V18.384C105.542 17.6373 106.267 17.0507 107.163 16.624C108.059 16.176 109.073 15.952 110.203 15.952C111.547 15.952 112.742 16.24 113.787 16.816C114.854 17.392 115.686 18.2133 116.283 19.28C116.902 18.2987 117.745 17.4987 118.811 16.88C119.878 16.2613 121.041 15.952 122.299 15.952ZM136.142 14.288C135.182 14.288 134.393 14.0107 133.774 13.456C133.177 12.88 132.878 12.176 132.878 11.344C132.878 10.4907 133.177 9.78667 133.774 9.232C134.393 8.656 135.182 8.368 136.142 8.368C137.081 8.368 137.849 8.656 138.446 9.232C139.065 9.78667 139.374 10.4907 139.374 11.344C139.374 12.176 139.065 12.88 138.446 13.456C137.849 14.0107 137.081 14.288 136.142 14.288ZM138.862 16.144V34H133.39V16.144H138.862ZM161.065 34L156.393 25.52H155.081V34H149.609V11.536H158.793C160.564 11.536 162.068 11.8453 163.305 12.464C164.564 13.0827 165.502 13.936 166.121 15.024C166.74 16.0907 167.049 17.2853 167.049 18.608C167.049 20.1013 166.622 21.4347 165.769 22.608C164.937 23.7813 163.7 24.6133 162.057 25.104L167.241 34H161.065ZM155.081 21.648H158.473C159.476 21.648 160.222 21.4027 160.713 20.912C161.225 20.4213 161.481 19.728 161.481 18.832C161.481 17.9787 161.225 17.3067 160.713 16.816C160.222 16.3253 159.476 16.08 158.473 16.08H155.081V21.648ZM178.612 34.256C176.863 34.256 175.284 33.8827 173.876 33.136C172.489 32.3893 171.391 31.3227 170.58 29.936C169.791 28.5493 169.396 26.928 169.396 25.072C169.396 23.2373 169.801 21.6267 170.612 20.24C171.423 18.832 172.532 17.7547 173.94 17.008C175.348 16.2613 176.927 15.888 178.676 15.888C180.425 15.888 182.004 16.2613 183.412 17.008C184.82 17.7547 185.929 18.832 186.74 20.24C187.551 21.6267 187.956 23.2373 187.956 25.072C187.956 26.9067 187.54 28.528 186.708 29.936C185.897 31.3227 184.777 32.3893 183.348 33.136C181.94 33.8827 180.361 34.256 178.612 34.256ZM178.612 29.52C179.657 29.52 180.543 29.136 181.268 28.368C182.015 27.6 182.388 26.5013 182.388 25.072C182.388 23.6427 182.025 22.544 181.3 21.776C180.596 21.008 179.721 20.624 178.676 20.624C177.609 20.624 176.724 21.008 176.02 21.776C175.316 22.5227 174.964 23.6213 174.964 25.072C174.964 26.5013 175.305 27.6 175.988 28.368C176.692 29.136 177.567 29.52 178.612 29.52ZM196.331 10.32V34H190.859V10.32H196.331ZM217.128 24.784C217.128 25.296 217.097 25.8293 217.033 26.384H204.649C204.734 27.4933 205.086 28.3467 205.705 28.944C206.345 29.52 207.123 29.808 208.041 29.808C209.406 29.808 210.355 29.232 210.889 28.08H216.713C216.414 29.2533 215.87 30.3093 215.081 31.248C214.313 32.1867 213.342 32.9227 212.169 33.456C210.995 33.9893 209.683 34.256 208.233 34.256C206.483 34.256 204.926 33.8827 203.561 33.136C202.195 32.3893 201.129 31.3227 200.361 29.936C199.593 28.5493 199.209 26.928 199.209 25.072C199.209 23.216 199.582 21.5947 200.329 20.208C201.097 18.8213 202.163 17.7547 203.529 17.008C204.894 16.2613 206.462 15.888 208.233 15.888C209.961 15.888 211.497 16.2507 212.841 16.976C214.185 17.7013 215.23 18.736 215.977 20.08C216.745 21.424 217.128 22.992 217.128 24.784ZM211.529 23.344C211.529 22.4053 211.209 21.6587 210.569 21.104C209.929 20.5493 209.129 20.272 208.169 20.272C207.251 20.272 206.473 20.5387 205.833 21.072C205.214 21.6053 204.83 22.3627 204.681 23.344H211.529ZM225.487 18.672C226.021 17.84 226.757 17.168 227.695 16.656C228.634 16.144 229.733 15.888 230.991 15.888C232.463 15.888 233.797 16.2613 234.991 17.008C236.186 17.7547 237.125 18.8213 237.807 20.208C238.511 21.5947 238.863 23.2053 238.863 25.04C238.863 26.8747 238.511 28.496 237.807 29.904C237.125 31.2907 236.186 32.368 234.991 33.136C233.797 33.8827 232.463 34.256 230.991 34.256C229.754 34.256 228.655 34 227.695 33.488C226.757 32.976 226.021 32.3147 225.487 31.504V42.512H220.015V16.144H225.487V18.672ZM233.295 25.04C233.295 23.6747 232.911 22.608 232.143 21.84C231.397 21.0507 230.469 20.656 229.359 20.656C228.271 20.656 227.343 21.0507 226.575 21.84C225.829 22.6293 225.455 23.7067 225.455 25.072C225.455 26.4373 225.829 27.5147 226.575 28.304C227.343 29.0933 228.271 29.488 229.359 29.488C230.447 29.488 231.375 29.0933 232.143 28.304C232.911 27.4933 233.295 26.4053 233.295 25.04ZM247.206 10.32V34H241.734V10.32H247.206ZM250.084 25.04C250.084 23.2053 250.425 21.5947 251.108 20.208C251.812 18.8213 252.761 17.7547 253.956 17.008C255.15 16.2613 256.484 15.888 257.956 15.888C259.214 15.888 260.313 16.144 261.252 16.656C262.212 17.168 262.948 17.84 263.46 18.672V16.144H268.932V34H263.46V31.472C262.926 32.304 262.18 32.976 261.22 33.488C260.281 34 259.182 34.256 257.924 34.256C256.473 34.256 255.15 33.8827 253.956 33.136C252.761 32.368 251.812 31.2907 251.108 29.904C250.425 28.496 250.084 26.8747 250.084 25.04ZM263.46 25.072C263.46 23.7067 263.076 22.6293 262.308 21.84C261.561 21.0507 260.644 20.656 259.556 20.656C258.468 20.656 257.54 21.0507 256.772 21.84C256.025 22.608 255.652 23.6747 255.652 25.04C255.652 26.4053 256.025 27.4933 256.772 28.304C257.54 29.0933 258.468 29.488 259.556 29.488C260.644 29.488 261.561 29.0933 262.308 28.304C263.076 27.5147 263.46 26.4373 263.46 25.072ZM291.13 16.144L279.93 42.48H274.042L278.138 33.392L270.874 16.144H276.986L281.114 27.312L285.21 16.144H291.13Z" fill="url(#paint0_linear_210_6)"/>
<defs>
<linearGradient id="paint0_linear_210_6" x1="37" y1="46" x2="420.849" y2="46" gradientUnits="userSpaceOnUse">
<stop stop-color="#EE0979"/>
<stop offset="1" stop-color="#FF6A00"/>
</linearGradient>
</defs>
</svg>
